<?xml version="1.0" encoding="UTF-8"?>
<svg id="Layer_2" data-name="Layer 2" xmlns="http://www.w3.org/2000/svg" viewBox="0 0 70.79 98.23">
  <defs>
    <style>
      .cls-1 {
        fill: #09a386;
        stroke-width: 0px;
      }
    </style>
  </defs>
  <g id="Layer_1-2" data-name="Layer 1">
    <g>
      <path class="cls-1" d="M5.47,20.98c8.1.23,15.45.8,22.51,3.24,2.34.81,4.59,1.82,6.66,3.18.5.33.93.45,1.52.06,4.5-3.02,9.61-4.4,14.86-5.31,5.05-.87,10.15-1.19,15.27-1.13,1.27.01,2.53.15,3.8.19.53.02.67.11.37.64-.67,1.22-1.74,1.68-3.04,1.8-5.04.47-9.99,1.42-14.78,3.08-5.24,1.81-10.11,4.3-14.25,8.05-.92.83-1.72,1.76-2.43,2.78-.29.41-.51.71-.99.11-4.9-6.13-11.62-9.35-18.9-11.59-4.22-1.3-8.56-2.07-12.97-2.45-1.18-.1-2.15-.61-2.72-1.71-.24-.46-.16-.71.4-.69,1.8.04,3.57-.41,4.68-.26Z"/>
      <path class="cls-1" d="M13.3,11.79c2.62,0,5.11.34,7.6.73,4.48.7,8.92,1.59,12.93,3.8,1.3.72,2.28.76,3.67.16,3.55-1.55,7.35-1.47,11.14-1.17.82.07,1.63.21,2.44.31.22.03.49.02.51.32.02.24-.18.4-.37.52-.44.28-.93.24-1.41.26-3.65.14-7.2.72-10.49,2.45-1.34.7-2.54,1.59-3.56,2.69-.36.39-.56.47-.96.06-4.16-4.29-9.46-6.42-15.1-7.88-1.62-.42-3.27-.74-4.91-1.11-.63-.14-1.2-.36-1.47-1.14Z"/>
      <path class="cls-1" d="M37.49,11.51c-2.19.39-3.92-.51-5.55-1.63-1.93-1.33-3.74-2.88-6.2-3.18-.81-.1-1.61-.21-2.75-.36,1.48-.76,2.75-.83,4.02-.72,1.63.14,3.24.46,4.76,1.14.58.26,1.19.14,1.81-.2,1.85-1.01,3.34-2.49,5-3.75,1.7-1.28,3.82-1.67,5.63-2.72.54-.32.53.18.52.5-.04,1-.63,1.74-1.25,2.43-.63.7-1.41,1.21-2.24,1.66-1.38.74-2.8,1.43-4.12,2.27-2.05,1.31-1.98,3.08.09,4.38.09.06.18.12.28.17Z"/>
      <path class="cls-1" d="M70.79,32.07c-.03,9.9-.03,19.8,0,29.7,0,.84-.32,1.16-1.05,1.41-7.76,2.84-15.17,6.36-21.64,11.6-2.35,1.89-4.49,4.06-6.49,6.33-1.33,1.92-2.54,3.95-3.6,6.03-.03.08-.05.16-.11.22-.3,1.24-.89,2.41-1.05,3.71-.19,1.33-1.05,2.7.38,3.89.14.11.08.43.14.65.19.35.27.7,0,1.06.03.05.03.08-.03.14,0,.19-.03.35-.22.43v.03c-.46.81-1.16,1.11-2.06.92-.95-.22-1.57-.78-1.62-1.81-.27-.59-.08-1.16.27-1.54.92-.97.73-2.06.46-3.16-.11-.51-.16-1.03-.24-1.51-.76-1.54-1.22-3.19-2.03-4.71-3.16-5.9-7.95-10.2-13.44-13.79-5.44-3.57-11.28-6.3-17.39-8.44-.84-.3-1.05-.68-1.05-1.51.08-3.03.08-6.06.08-9.06,0-2.25-.05-4.49-.05-6.73C.03,41.24.05,36.56.03,31.88c0-.78.24-1.14,1.05-1.22,5.6-.46,11.17-.38,16.66,1.14,8.22,2.27,13.96,7.22,16.61,15.44.49,1.54.22,3.11.19,4.68,0,2.92.03,5.84.03,8.79.35,1.81.16,3.62.27,5.46,0,.43-.32.57-.62.7-2.52,1.14-2.57,5,.05,6.06.68.24.54.81.57,1.3.08,6.95.14,13.88.24,20.83,0,.46-.32,1.27.38,1.27.51,0,.27-.81.27-1.24.14-6.3.22-12.6.32-18.91v-.49c-.03-.46,0-.89-.05-1.33-.03-.73.14-1.24.89-1.57.51-.24.89-.76,1.3-1.16.11-.3.22-.6.32-.89,0-.57-.03-1.16-.03-1.76-.03-.08-.03-.14-.05-.22-.27-.24-.35-.57-.46-.89-.16-.16-.3-.38-.49-.46-1.68-.62-1.41-2-1.38-3.33.05-4.49.08-8.95.14-13.42,0-.62-.08-1.27.16-1.89,0-.22.03-.43.03-.65.32-.3.19-.65.19-1,1.43-5.19,4.49-9.22,9.01-12.12,4.17-2.68,8.84-3.87,13.74-4.36,3.35-.35,6.71-.27,10.06,0,.95.08,1.35.35,1.35,1.41Z"/>
      <path class="cls-1" d="M36.43,48.14c-.05-.35-.08-.7.19-1,0,.35.14.7-.19,1Z"/>
    </g>
  </g>
</svg>